<svg xmlns="http://www.w3.org/2000/svg" xmlns:xlink="http://www.w3.org/1999/xlink" width="500" zoomAndPan="magnify" viewBox="0 0 375 374.999991" height="500" preserveAspectRatio="xMidYMid meet" version="1.0"><defs><g/><clipPath id="954beb8a44"><path d="M 131.539062 180.214844 L 145.789062 180.214844 L 145.789062 194.464844 L 131.539062 194.464844 Z M 131.539062 180.214844 " clip-rule="nonzero"/></clipPath></defs><g clip-path="url(#954beb8a44)"><path fill="#5e17eb" d="M 140.859375 185.367188 C 140.722656 185.367188 140.613281 185.257812 140.613281 185.121094 C 140.613281 185.121094 140.613281 180.957031 140.613281 180.957031 C 140.613281 180.550781 140.285156 180.222656 139.878906 180.222656 L 137.425781 180.222656 C 137.019531 180.222656 136.691406 180.550781 136.691406 180.957031 L 136.691406 185.121094 C 136.691406 185.257812 136.582031 185.367188 136.445312 185.367188 C 136.445312 185.367188 132.28125 185.367188 132.28125 185.367188 C 131.875 185.367188 131.542969 185.695312 131.542969 186.101562 L 131.542969 188.554688 C 131.542969 188.960938 131.875 189.292969 132.28125 189.292969 L 136.445312 189.292969 C 136.582031 189.292969 136.691406 189.402344 136.691406 189.535156 C 136.691406 189.535156 136.691406 193.699219 136.691406 193.699219 C 136.691406 194.105469 137.019531 194.4375 137.425781 194.4375 L 139.878906 194.4375 C 140.285156 194.4375 140.613281 194.105469 140.613281 193.699219 L 140.613281 189.535156 C 140.613281 189.402344 140.722656 189.292969 140.859375 189.292969 C 140.859375 189.292969 145.023438 189.292969 145.023438 189.292969 C 145.429688 189.292969 145.757812 188.960938 145.757812 188.554688 L 145.757812 186.101562 C 145.757812 185.695312 145.429688 185.367188 145.023438 185.367188 Z M 140.859375 185.367188 " fill-opacity="1" fill-rule="evenodd"/></g><g fill="#000000" fill-opacity="1"><g transform="translate(147.593829, 192.457106)"><g><path d="M 4.390625 -8.984375 C 5.847656 -8.984375 6.960938 -8.601562 7.734375 -7.84375 C 8.503906 -7.09375 8.890625 -5.972656 8.890625 -4.484375 C 8.890625 -3.003906 8.503906 -1.882812 7.734375 -1.125 C 6.960938 -0.375 5.847656 0 4.390625 0 L 1.171875 0 L 1.171875 -8.984375 Z M 4.296875 -1.5 C 5.222656 -1.5 5.914062 -1.734375 6.375 -2.203125 C 6.832031 -2.671875 7.0625 -3.429688 7.0625 -4.484375 C 7.0625 -5.535156 6.832031 -6.296875 6.375 -6.765625 C 5.914062 -7.242188 5.222656 -7.484375 4.296875 -7.484375 L 2.9375 -7.484375 L 2.9375 -1.5 Z M 4.296875 -1.5 "/></g></g></g><g fill="#000000" fill-opacity="1"><g transform="translate(157.190271, 192.457106)"><g><path d="M 3.9375 0.125 C 3.269531 0.125 2.6875 -0.0078125 2.1875 -0.28125 C 1.6875 -0.550781 1.296875 -0.945312 1.015625 -1.46875 C 0.742188 -2 0.609375 -2.640625 0.609375 -3.390625 C 0.609375 -4.128906 0.742188 -4.765625 1.015625 -5.296875 C 1.296875 -5.828125 1.6875 -6.226562 2.1875 -6.5 C 2.6875 -6.769531 3.269531 -6.90625 3.9375 -6.90625 C 4.601562 -6.90625 5.1875 -6.769531 5.6875 -6.5 C 6.1875 -6.226562 6.570312 -5.828125 6.84375 -5.296875 C 7.125 -4.765625 7.265625 -4.128906 7.265625 -3.390625 C 7.265625 -2.640625 7.125 -2 6.84375 -1.46875 C 6.570312 -0.945312 6.1875 -0.550781 5.6875 -0.28125 C 5.1875 -0.0078125 4.601562 0.125 3.9375 0.125 Z M 3.9375 -1.3125 C 4.988281 -1.3125 5.515625 -2.003906 5.515625 -3.390625 C 5.515625 -4.097656 5.378906 -4.617188 5.109375 -4.953125 C 4.835938 -5.285156 4.445312 -5.453125 3.9375 -5.453125 C 2.882812 -5.453125 2.359375 -4.765625 2.359375 -3.390625 C 2.359375 -2.003906 2.882812 -1.3125 3.9375 -1.3125 Z M 3.9375 -1.3125 "/></g></g></g><g fill="#000000" fill-opacity="1"><g transform="translate(165.061437, 192.457106)"><g><path d="M 3.953125 0.125 C 3.296875 0.125 2.710938 -0.0078125 2.203125 -0.28125 C 1.703125 -0.550781 1.3125 -0.945312 1.03125 -1.46875 C 0.75 -2 0.609375 -2.640625 0.609375 -3.390625 C 0.609375 -4.128906 0.75 -4.765625 1.03125 -5.296875 C 1.3125 -5.828125 1.703125 -6.226562 2.203125 -6.5 C 2.703125 -6.769531 3.273438 -6.90625 3.921875 -6.90625 C 5.347656 -6.90625 6.257812 -6.382812 6.65625 -5.34375 L 5.5 -4.515625 L 5.375 -4.515625 C 5.226562 -4.835938 5.039062 -5.070312 4.8125 -5.21875 C 4.59375 -5.375 4.296875 -5.453125 3.921875 -5.453125 C 3.429688 -5.453125 3.046875 -5.28125 2.765625 -4.9375 C 2.492188 -4.601562 2.359375 -4.085938 2.359375 -3.390625 C 2.359375 -2.691406 2.492188 -2.171875 2.765625 -1.828125 C 3.046875 -1.484375 3.441406 -1.3125 3.953125 -1.3125 C 4.316406 -1.3125 4.625 -1.410156 4.875 -1.609375 C 5.132812 -1.804688 5.320312 -2.09375 5.4375 -2.46875 L 5.5625 -2.484375 L 6.78125 -1.8125 C 6.601562 -1.238281 6.28125 -0.769531 5.8125 -0.40625 C 5.351562 -0.0507812 4.734375 0.125 3.953125 0.125 Z M 3.953125 0.125 "/></g></g></g><g fill="#000000" fill-opacity="1"><g transform="translate(172.042344, 192.457106)"><g><path d="M 4.671875 -1.609375 L 5.109375 -0.359375 C 4.929688 -0.203125 4.703125 -0.0820312 4.421875 0 C 4.140625 0.0820312 3.820312 0.125 3.46875 0.125 C 2.738281 0.125 2.179688 -0.0703125 1.796875 -0.46875 C 1.421875 -0.863281 1.234375 -1.445312 1.234375 -2.21875 L 1.234375 -5.421875 L 0.203125 -5.421875 L 0.203125 -6.78125 L 1.234375 -6.78125 L 1.234375 -8.09375 L 2.9375 -8.375 L 2.9375 -6.78125 L 4.859375 -6.78125 L 4.859375 -5.421875 L 2.9375 -5.421875 L 2.9375 -2.328125 C 2.9375 -1.992188 3.003906 -1.75 3.140625 -1.59375 C 3.285156 -1.445312 3.488281 -1.375 3.75 -1.375 C 4.050781 -1.375 4.316406 -1.453125 4.546875 -1.609375 Z M 4.671875 -1.609375 "/></g></g></g><g fill="#000000" fill-opacity="1"><g transform="translate(177.30412, 192.457106)"><g><path d="M 3.9375 0.125 C 3.269531 0.125 2.6875 -0.0078125 2.1875 -0.28125 C 1.6875 -0.550781 1.296875 -0.945312 1.015625 -1.46875 C 0.742188 -2 0.609375 -2.640625 0.609375 -3.390625 C 0.609375 -4.128906 0.742188 -4.765625 1.015625 -5.296875 C 1.296875 -5.828125 1.6875 -6.226562 2.1875 -6.5 C 2.6875 -6.769531 3.269531 -6.90625 3.9375 -6.90625 C 4.601562 -6.90625 5.1875 -6.769531 5.6875 -6.5 C 6.1875 -6.226562 6.570312 -5.828125 6.84375 -5.296875 C 7.125 -4.765625 7.265625 -4.128906 7.265625 -3.390625 C 7.265625 -2.640625 7.125 -2 6.84375 -1.46875 C 6.570312 -0.945312 6.1875 -0.550781 5.6875 -0.28125 C 5.1875 -0.0078125 4.601562 0.125 3.9375 0.125 Z M 3.9375 -1.3125 C 4.988281 -1.3125 5.515625 -2.003906 5.515625 -3.390625 C 5.515625 -4.097656 5.378906 -4.617188 5.109375 -4.953125 C 4.835938 -5.285156 4.445312 -5.453125 3.9375 -5.453125 C 2.882812 -5.453125 2.359375 -4.765625 2.359375 -3.390625 C 2.359375 -2.003906 2.882812 -1.3125 3.9375 -1.3125 Z M 3.9375 -1.3125 "/></g></g></g><g fill="#000000" fill-opacity="1"><g transform="translate(185.175285, 192.457106)"><g><path d="M 0.96875 0 L 0.96875 -6.78125 L 2.625 -6.78125 L 2.625 -5.765625 L 2.75 -5.75 C 2.914062 -6.125 3.128906 -6.394531 3.390625 -6.5625 C 3.660156 -6.738281 3.988281 -6.828125 4.375 -6.828125 C 4.757812 -6.828125 5.050781 -6.765625 5.25 -6.640625 L 4.96875 -5.171875 L 4.828125 -5.140625 C 4.722656 -5.191406 4.617188 -5.226562 4.515625 -5.25 C 4.410156 -5.269531 4.285156 -5.28125 4.140625 -5.28125 C 3.660156 -5.28125 3.296875 -5.113281 3.046875 -4.78125 C 2.796875 -4.445312 2.671875 -3.910156 2.671875 -3.171875 L 2.671875 0 Z M 0.96875 0 "/></g></g></g><g fill="#000000" fill-opacity="1"><g transform="translate(190.486179, 192.457106)"><g><path d="M 3.984375 0.125 C 3.359375 0.125 2.800781 0.0507812 2.3125 -0.09375 C 1.832031 -0.25 1.429688 -0.453125 1.109375 -0.703125 C 0.785156 -0.953125 0.535156 -1.226562 0.359375 -1.53125 L 1.34375 -2.71875 L 1.5 -2.71875 C 1.757812 -2.320312 2.097656 -2.003906 2.515625 -1.765625 C 2.929688 -1.523438 3.421875 -1.40625 3.984375 -1.40625 C 4.453125 -1.40625 4.804688 -1.503906 5.046875 -1.703125 C 5.296875 -1.910156 5.421875 -2.1875 5.421875 -2.53125 C 5.421875 -2.75 5.378906 -2.925781 5.296875 -3.0625 C 5.222656 -3.207031 5.09375 -3.332031 4.90625 -3.4375 C 4.726562 -3.539062 4.488281 -3.628906 4.1875 -3.703125 L 3.03125 -3.96875 C 2.21875 -4.15625 1.613281 -4.460938 1.21875 -4.890625 C 0.820312 -5.316406 0.625 -5.867188 0.625 -6.546875 C 0.625 -7.054688 0.75 -7.503906 1 -7.890625 C 1.257812 -8.273438 1.628906 -8.570312 2.109375 -8.78125 C 2.597656 -9 3.179688 -9.109375 3.859375 -9.109375 C 4.554688 -9.109375 5.148438 -9.015625 5.640625 -8.828125 C 6.128906 -8.648438 6.546875 -8.375 6.890625 -8 L 6.015625 -6.796875 L 5.859375 -6.796875 C 5.609375 -7.054688 5.316406 -7.253906 4.984375 -7.390625 C 4.660156 -7.523438 4.285156 -7.59375 3.859375 -7.59375 C 3.367188 -7.59375 3 -7.503906 2.75 -7.328125 C 2.5 -7.160156 2.375 -6.925781 2.375 -6.625 C 2.375 -6.34375 2.460938 -6.113281 2.640625 -5.9375 C 2.816406 -5.769531 3.125 -5.640625 3.5625 -5.546875 L 4.734375 -5.3125 C 5.609375 -5.125 6.242188 -4.804688 6.640625 -4.359375 C 7.035156 -3.921875 7.234375 -3.347656 7.234375 -2.640625 C 7.234375 -2.085938 7.109375 -1.601562 6.859375 -1.1875 C 6.617188 -0.769531 6.253906 -0.445312 5.765625 -0.21875 C 5.285156 0.0078125 4.691406 0.125 3.984375 0.125 Z M 3.984375 0.125 "/></g></g></g><g fill="#000000" fill-opacity="1"><g transform="translate(198.197711, 192.457106)"><g><path d="M 6.6875 -3 L 2.34375 -3 C 2.382812 -2.414062 2.550781 -1.988281 2.84375 -1.71875 C 3.132812 -1.445312 3.523438 -1.3125 4.015625 -1.3125 C 4.398438 -1.3125 4.710938 -1.382812 4.953125 -1.53125 C 5.203125 -1.675781 5.398438 -1.894531 5.546875 -2.1875 L 5.671875 -2.1875 L 6.8125 -1.46875 C 6.582031 -0.988281 6.242188 -0.601562 5.796875 -0.3125 C 5.359375 -0.0195312 4.765625 0.125 4.015625 0.125 C 3.316406 0.125 2.710938 -0.00390625 2.203125 -0.265625 C 1.691406 -0.535156 1.296875 -0.929688 1.015625 -1.453125 C 0.742188 -1.984375 0.609375 -2.628906 0.609375 -3.390625 C 0.609375 -4.148438 0.753906 -4.796875 1.046875 -5.328125 C 1.335938 -5.859375 1.726562 -6.253906 2.21875 -6.515625 C 2.71875 -6.773438 3.273438 -6.90625 3.890625 -6.90625 C 4.847656 -6.90625 5.582031 -6.648438 6.09375 -6.140625 C 6.601562 -5.628906 6.859375 -4.882812 6.859375 -3.90625 C 6.859375 -3.550781 6.847656 -3.273438 6.828125 -3.078125 Z M 5.234375 -4.109375 C 5.210938 -4.617188 5.085938 -4.988281 4.859375 -5.21875 C 4.640625 -5.457031 4.316406 -5.578125 3.890625 -5.578125 C 3.035156 -5.578125 2.53125 -5.085938 2.375 -4.109375 Z M 5.234375 -4.109375 "/></g></g></g><g fill="#000000" fill-opacity="1"><g transform="translate(205.559283, 192.457106)"><g><path d="M 3.640625 0 L 1.859375 0 L 0.25 -6.78125 L 1.828125 -6.78125 L 2.8125 -2.1875 L 2.953125 -2.1875 L 4.234375 -6.78125 L 5.71875 -6.78125 L 7.046875 -2.1875 L 7.171875 -2.1875 L 8.125 -6.78125 L 9.671875 -6.78125 L 8.078125 0 L 6.296875 0 L 5 -4.609375 L 4.875 -4.609375 Z M 3.640625 0 "/></g></g></g><g fill="#000000" fill-opacity="1"><g transform="translate(215.462713, 192.457106)"><g><path d="M 2.640625 0.125 C 2.203125 0.125 1.820312 0.046875 1.5 -0.109375 C 1.1875 -0.265625 0.941406 -0.5 0.765625 -0.8125 C 0.597656 -1.125 0.515625 -1.492188 0.515625 -1.921875 C 0.515625 -2.328125 0.597656 -2.664062 0.765625 -2.9375 C 0.941406 -3.207031 1.207031 -3.429688 1.5625 -3.609375 C 1.925781 -3.785156 2.398438 -3.921875 2.984375 -4.015625 C 3.390625 -4.078125 3.695312 -4.144531 3.90625 -4.21875 C 4.113281 -4.300781 4.253906 -4.390625 4.328125 -4.484375 C 4.410156 -4.585938 4.453125 -4.710938 4.453125 -4.859375 C 4.453125 -5.078125 4.375 -5.242188 4.21875 -5.359375 C 4.0625 -5.472656 3.8125 -5.53125 3.46875 -5.53125 C 3.09375 -5.53125 2.734375 -5.445312 2.390625 -5.28125 C 2.046875 -5.113281 1.75 -4.894531 1.5 -4.625 L 1.375 -4.625 L 0.671875 -5.6875 C 1.015625 -6.070312 1.429688 -6.367188 1.921875 -6.578125 C 2.421875 -6.796875 2.960938 -6.90625 3.546875 -6.90625 C 4.441406 -6.90625 5.085938 -6.710938 5.484375 -6.328125 C 5.890625 -5.953125 6.09375 -5.410156 6.09375 -4.703125 L 6.09375 -1.765625 C 6.09375 -1.460938 6.226562 -1.3125 6.5 -1.3125 C 6.601562 -1.3125 6.703125 -1.332031 6.796875 -1.375 L 6.890625 -1.34375 L 7 -0.15625 C 6.90625 -0.09375 6.773438 -0.0390625 6.609375 0 C 6.441406 0.03125 6.257812 0.046875 6.0625 0.046875 C 5.65625 0.046875 5.335938 -0.03125 5.109375 -0.1875 C 4.878906 -0.34375 4.71875 -0.585938 4.625 -0.921875 L 4.5 -0.921875 C 4.164062 -0.222656 3.546875 0.125 2.640625 0.125 Z M 3.1875 -1.140625 C 3.570312 -1.140625 3.882812 -1.269531 4.125 -1.53125 C 4.363281 -1.800781 4.484375 -2.171875 4.484375 -2.640625 L 4.484375 -3.328125 L 4.359375 -3.359375 C 4.253906 -3.273438 4.117188 -3.203125 3.953125 -3.140625 C 3.785156 -3.085938 3.550781 -3.035156 3.25 -2.984375 C 2.875 -2.921875 2.601562 -2.8125 2.4375 -2.65625 C 2.28125 -2.507812 2.203125 -2.300781 2.203125 -2.03125 C 2.203125 -1.738281 2.285156 -1.515625 2.453125 -1.359375 C 2.628906 -1.210938 2.875 -1.140625 3.1875 -1.140625 Z M 3.1875 -1.140625 "/></g></g></g></svg>